<svg width="42" height="53" viewBox="0 0 42 53" fill="none" xmlns="http://www.w3.org/2000/svg">
<path d="M0.0381122 14.352L12.6019 9.54565L12.6694 9.69681V17.1149L12.6019 17.3062L2.28762 19.6558V35.3855L12.6019 37.0692L12.6694 37.2606V44.6824L12.6019 44.8355L0.0381122 40.8519L0 40.7084V14.4898L0.0381122 14.352ZM3.12112 25.7376L11.6091 23.8384L11.6648 23.98V31.2737L11.6091 31.444L3.12112 30.0999L3.03224 29.6637V26.1739L3.12112 25.7376Z" fill="black"/>
<path d="M0.0381122 14.352L12.6019 9.54565L12.6694 9.69681V17.1149L12.6019 17.3062L2.28762 19.6558V35.3855L12.6019 37.0692L12.6694 37.2606V44.6824L12.6019 44.8355L0.0381122 40.8519L0 40.7084V14.4898L0.0381122 14.352ZM3.12112 25.7376L11.6091 23.8384L11.6648 23.98V31.2737L11.6091 31.444L3.12112 30.0999L3.03224 29.6637V26.1739L3.12112 25.7376Z" stroke="black"/>
<path d="M14.2954 8.61376L35.7557 0.288765C38.4772 -0.767405 40.4658 1.06367 41.5905 5.94655C41.8612 7.07493 42.001 8.30658 42 9.55322V42.5911C42 46.368 41.0433 49.3528 39.1974 51.4728C38.0091 52.3032 36.8853 52.5347 35.8212 52.198L14.2993 45.3731L14.228 45.1683V8.81466L14.2954 8.61376ZM18.7427 15.6491V38.7529L33.2941 41.3034V12.2568L18.7427 15.6491Z" fill="black"/>
<path d="M14.2954 8.61376L35.7557 0.288765C38.4772 -0.767405 40.4658 1.06367 41.5905 5.94655C41.8612 7.07493 42.001 8.30658 42 9.55322V42.5911C42 46.368 41.0433 49.3528 39.1974 51.4728C38.0091 52.3032 36.8853 52.5347 35.8212 52.198L14.2993 45.3731L14.228 45.1683V8.81466L14.2954 8.61376ZM18.7427 15.6491V38.7529L33.2941 41.3034V12.2568L18.7427 15.6491Z" stroke="black"/>
</svg>
